<?xml version="1.0" encoding="UTF-8" standalone="no"?>
<svg
   xmlns:dc="http://purl.org/dc/elements/1.1/"
   xmlns:cc="http://creativecommons.org/ns#"
   xmlns:rdf="http://www.w3.org/1999/02/22-rdf-syntax-ns#"
   xmlns:svg="http://www.w3.org/2000/svg"
   xmlns="http://www.w3.org/2000/svg"
   xmlns:sodipodi="http://sodipodi.sourceforge.net/DTD/sodipodi-0.dtd"
   xmlns:inkscape="http://www.inkscape.org/namespaces/inkscape"
   width="210mm"
   height="100mm"
   viewBox="0 0 210 100"
   version="1.1"
   id="svg8"
   inkscape:version="1.0.1 (0767f8302a, 2020-10-17)"
   sodipodi:docname="assinatura.svg"
   inkscape:export-filename="/home/colaborador/Documents/arthur/portifolio/data_viz/birthday/resources/arthur_handwrite.png"
   inkscape:export-xdpi="96"
   inkscape:export-ydpi="96">
  <defs
     id="defs2" />
  <sodipodi:namedview
     id="base"
     pagecolor="#ffffff"
     bordercolor="#666666"
     borderopacity="1.0"
     inkscape:pageopacity="0.0"
     inkscape:pageshadow="2"
     inkscape:zoom="0.6545614"
     inkscape:cx="201.04518"
     inkscape:cy="99.004286"
     inkscape:document-units="mm"
     inkscape:current-layer="layer1"
     inkscape:document-rotation="0"
     showgrid="false"
     inkscape:showpageshadow="false"
     inkscape:snap-others="false"
     inkscape:object-nodes="false"
     inkscape:snap-nodes="false"
     inkscape:window-width="1366"
     inkscape:window-height="704"
     inkscape:window-x="0"
     inkscape:window-y="27"
     inkscape:window-maximized="1" />
  <metadata
     id="metadata5">
    <rdf:RDF>
      <cc:Work
         rdf:about="">
        <dc:format>image/svg+xml</dc:format>
        <dc:type
           rdf:resource="http://purl.org/dc/dcmitype/StillImage" />
        <dc:title></dc:title>
      </cc:Work>
    </rdf:RDF>
  </metadata>
  <g
     inkscape:label="Layer 1"
     inkscape:groupmode="layer"
     id="layer1">
    <g
       id="g978"
       transform="translate(23.960357,5.9727483)">
      <path
         style="opacity:1;fill:none;stroke:#000000;stroke-width:1.29;stroke-miterlimit:4;stroke-dasharray:none"
         id="path888"
         d="m 12.10688,64.958129 c 0.468754,-0.938999 0.949664,-1.872025 1.406261,-2.816995 1.894075,-3.919961 3.748976,-7.858803 5.597455,-11.80047 2.148367,-4.581141 4.496331,-9.64194 6.50695,-14.290646 0.939757,-2.17279 1.824267,-4.369056 2.7364,-6.553586 2.526752,-6.141682 4.783198,-12.387297 6.946926,-18.663709 -0.169238,0.215358 -0.427741,0.384111 -0.507712,0.646075 -0.18932,0.620165 -0.191349,1.282692 -0.277283,1.92539 -0.157731,1.179665 -0.313227,2.359702 -0.453689,3.541547 -0.721609,6.071588 -1.184704,12.148697 -1.61371,18.246941 -0.667702,10.175068 -1.215577,20.359073 -1.544746,30.55091 0,0 0.443355,-0.22421 0.443355,-0.22421 v 0 c 0.288994,-10.185085 0.82001,-20.36236 1.504267,-30.528387 0.407821,-5.675267 0.504071,-7.664614 1.075576,-13.204416 0.283213,-2.745262 0.679347,-5.84705 1.071486,-8.619344 0.09183,-0.649174 0.36031,-1.291489 0.29818,-1.944175 -0.01648,-0.173043 -0.331983,-0.103188 -0.497975,-0.154782 -2.093566,6.273132 -4.358473,12.488943 -6.851607,18.615644 -0.908849,2.182619 -1.78926,4.377296 -2.726543,6.547858 -2.01907,4.675762 -4.345813,9.689137 -6.513941,14.292657 -0.465311,0.987983 -4.872511,10.217017 -5.664116,11.829478 -0.466433,0.950105 -0.960905,1.886185 -1.441358,2.829277 0,0 0.505824,-0.225057 0.505824,-0.225057 z" />
      <path
         style="opacity:1;fill:none;stroke:#000000;stroke-width:1.29;stroke-miterlimit:4;stroke-dasharray:none"
         id="path890"
         d="m 19.425106,48.890856 c 1.562835,0.667718 3.277589,0.869699 4.946611,1.107948 0,0 0.451055,-0.318085 0.451055,-0.318085 v 0 c -1.661916,-0.234876 -3.3728,-0.432287 -4.925414,-1.106493 0,0 -0.472252,0.31663 -0.472252,0.31663 z" />
      <path
         style="opacity:1;fill:none;stroke:#000000;stroke-width:1.29;stroke-miterlimit:4;stroke-dasharray:none"
         id="path892"
         d="m 35.650744,52.267179 c -0.342503,2.275205 -0.434935,4.581697 -0.451972,6.879651 0.005,1.321892 0.05203,2.64302 0.09729,3.963974 0,0 0.496393,-0.255149 0.496393,-0.255149 v 0 c -0.04842,-1.318667 -0.09933,-2.637501 -0.105214,-3.957243 0.01786,-2.296795 0.10781,-4.604906 0.474035,-6.875798 0,0 -0.510529,0.244565 -0.510529,0.244565 z" />
      <path
         style="opacity:1;fill:none;stroke:#000000;stroke-width:1.29;stroke-miterlimit:4;stroke-dasharray:none"
         id="path894"
         d="m 34.751436,52.20034 c 1.596734,0.166243 3.19342,0.331144 4.793461,0.463375 0.820526,0.06001 0.427739,0.03354 1.178288,0.08053 0,0 0.456898,-0.327716 0.456898,-0.327716 v 0 c -0.752141,-0.0448 -0.358529,-0.01939 -1.180761,-0.07735 -1.596787,-0.128527 -3.189925,-0.29201 -4.782339,-0.464876 0,0 -0.465547,0.326041 -0.465547,0.326041 z" />
      <path
         style="opacity:1;fill:none;stroke:#000000;stroke-width:1.29;stroke-miterlimit:4;stroke-dasharray:none"
         id="path918"
         d="m 47.496745,44.272649 c 0.08779,1.82862 0.317307,3.654364 0.347687,5.485871 0.0099,0.594476 -0.01638,1.189003 -0.02458,1.783506 -0.06191,3.218646 -0.494697,6.412039 -0.894117,9.601565 -0.133059,0.997246 -0.212593,2.00012 -0.274037,3.003904 0,0 0.501748,-0.251862 0.501748,-0.251862 v 0 c 0.05932,-1.001331 0.137964,-2.001575 0.267348,-2.996673 0.388334,-3.190446 0.817139,-6.383684 0.881033,-9.601642 0.0089,-0.596199 0.03567,-1.192398 0.02677,-1.788599 -0.02742,-1.835539 -0.254235,-3.665379 -0.330239,-5.498716 0,0 -0.501621,0.262646 -0.501621,0.262646 z" />
      <path
         style="opacity:1;fill:none;stroke:#000000;stroke-width:1.29;stroke-miterlimit:4;stroke-dasharray:none"
         id="path920"
         d="m 43.171649,55.354651 c 2.064348,0.203107 4.115282,0.525393 6.175285,0.771834 1.58563,0.17494 0.82377,0.09486 2.285389,0.242036 0,0 0.450802,-0.320749 0.450802,-0.320749 v 0 c -1.464606,-0.143868 -0.701357,-0.06526 -2.289545,-0.237758 -2.055267,-0.244649 -4.100179,-0.570145 -6.158413,-0.782891 0,0 -0.463518,0.327528 -0.463518,0.327528 z" />
      <path
         style="opacity:1;fill:none;stroke:#000000;stroke-width:1.29;stroke-miterlimit:4;stroke-dasharray:none"
         id="path922"
         d="m 56.484366,42.174808 c 0.212804,1.648161 0.346879,3.301555 0.438581,4.960617 0.142822,3.119821 0.160666,6.243693 0.176287,9.366229 -0.03986,1.969037 -0.162955,3.93497 -0.239435,5.902724 -0.03552,0.477978 7.94e-4,0.979501 -0.108339,1.451615 -0.01461,0.06312 -0.134726,0.197189 -0.07213,0.180483 0.510746,-0.136305 0.464479,-0.154614 0.366424,-0.364635 -0.24221,-0.99272 -0.0028,-1.948146 0.334142,-2.883771 0.347584,-1.107588 0.970675,-1.994312 1.849919,-2.736021 0.156589,-0.08871 0.297426,-0.214281 0.469763,-0.266142 0.03924,-0.0118 0.02109,0.105598 0.06206,0.106098 0.209677,0.0026 0.412562,-0.07925 0.621432,-0.09779 0.656013,-0.05823 1.249982,0.0057 1.88485,0.157756 0.212277,0.150532 0.447302,0.273269 0.636836,0.451593 1.159018,1.090456 2.161513,3.149827 2.894827,4.579493 0.406937,0.863939 0.237707,0.446651 0.522206,1.245883 0,0 0.490963,-0.271886 0.490963,-0.271886 v 0 c -0.291182,-0.802626 -0.118888,-0.384217 -0.530794,-1.24941 -0.743529,-1.438767 -1.748065,-3.495198 -2.90631,-4.603242 -0.192619,-0.184269 -0.430837,-0.314018 -0.646258,-0.471024 -1.497441,-0.376531 -2.693054,-0.232722 -4.020815,0.629766 -0.873183,0.753719 -1.490175,1.651728 -1.836671,2.762197 -0.336037,0.950505 -0.572482,1.924024 -0.320405,2.9287 0.648705,1.194884 0.779782,-1.022025 0.787043,-1.163775 0.01087,-0.212373 0.01334,-0.425093 0.02,-0.637641 0.07271,-1.966777 0.19422,-3.931748 0.228344,-5.899809 -0.02074,-3.123229 -0.04003,-6.247823 -0.177591,-9.368512 -0.08736,-1.661194 -0.222542,-3.315853 -0.417947,-4.967824 0,0 -0.506989,0.258326 -0.506989,0.258326 z" />
      <path
         style="opacity:1;fill:none;stroke:#000000;stroke-width:1.29;stroke-miterlimit:4;stroke-dasharray:none"
         id="path924"
         d="m 69.770923,55.749097 c -0.03457,1.608349 0.362061,3.167163 0.924428,4.659743 0.459465,1.007743 0.981408,2.084552 2.017006,2.612644 0.171368,0.08739 0.357754,0.141518 0.53663,0.212278 0.202721,0.02506 0.403987,0.08126 0.608158,0.07519 0.425501,-0.01267 0.838116,-0.159666 1.181521,-0.410012 1.016016,-0.740695 1.195589,-1.076626 1.619552,-2.167117 0.334081,-1.027123 0.388612,-2.094243 0.397938,-3.163673 0,0 -0.498475,0.253431 -0.498475,0.253431 v 0 c -0.0096,1.06386 -0.0661,2.125017 -0.405908,3.144758 -0.0959,0.239596 -0.191801,0.47919 -0.2877,0.718786 -0.127727,0.204393 -0.28413,0.393456 -0.383185,0.613179 -0.03416,0.07577 0.05351,0.190868 -0.0056,0.249272 -0.460126,0.454475 -1.177274,0.466625 -1.759929,0.373147 -0.176816,-0.06779 -0.360902,-0.119022 -0.53045,-0.203364 -1.031391,-0.513077 -1.547548,-1.582517 -2.002383,-2.579272 -0.560728,-1.487744 -0.956968,-3.042819 -0.905875,-4.64666 0,0 -0.505708,0.257673 -0.505708,0.257673 z" />
      <path
         style="opacity:1;fill:none;stroke:#000000;stroke-width:1.29;stroke-miterlimit:4;stroke-dasharray:none"
         id="path937"
         d="m 79.72735,56.772092 c 0.166592,1.376413 0.191217,2.765319 0.222761,4.149929 0.0195,1.163704 0.03364,2.327656 0.02886,3.49155 -0.01109,0.224515 -0.02365,0.327239 0.506585,-0.340974 0.08074,-0.101748 -0.14741,-1.609225 -0.17041,-1.768811 -0.289206,-1.349571 -0.435251,-2.721091 -0.638361,-4.083939 -0.01064,-0.06636 -0.165674,-0.847434 -0.08383,-0.972669 0.293237,-0.448731 0.547362,-0.285155 0.945358,-0.368496 0.796989,-0.166891 1.579968,-0.395179 2.37331,-0.578612 1.487535,-0.314833 0.767792,-0.157093 2.15964,-0.471371 0,0 0.440511,-0.335301 0.440511,-0.335301 v 0 c -1.393717,0.317159 -0.672931,0.158607 -2.162824,0.473543 -0.291639,0.06702 -2.060241,0.464252 -2.372775,0.571352 -0.03167,0.01085 -1.6353,0.531818 -1.885712,0.965012 -0.07496,0.129675 0.07805,0.902994 0.09029,0.978617 0.203723,1.362705 0.354898,2.73327 0.637799,4.083818 0.06995,0.496085 0.136117,0.994732 0.160345,1.495763 0.0043,0.08984 -0.08839,0.248918 -7.93e-4,0.269825 0.171704,0.04104 0.33891,-0.09903 0.508365,-0.14854 -5.3e-4,-0.009 -0.0011,-0.01804 -0.0016,-0.02708 -0.01198,-1.162497 -0.01236,-2.325156 -0.03925,-3.487473 -0.03125,-1.388028 -0.05619,-2.7799 -0.216194,-4.160388 0,0 -0.501872,0.264242 -0.501872,0.264242 z" />
      <path
         style="opacity:1;fill:none;stroke:#000000;stroke-width:1.29;stroke-miterlimit:4;stroke-dasharray:none"
         id="path943"
         d="m 112.89272,54.831868 c -0.75558,1.399638 -1.14535,3.089109 -0.95418,4.682083 0.0461,0.384347 0.17003,0.755306 0.25504,1.132959 0.17901,0.346427 0.32525,0.711867 0.53704,1.039283 0.74106,1.145617 1.95461,2.081644 3.22367,2.577719 0.20071,0.07846 0.41588,0.113154 0.62382,0.16973 0.17199,-0.01714 0.35864,0.02019 0.51597,-0.05139 1.67663,-0.76267 1.47502,-2.206726 1.21436,-3.744085 -0.77371,-2.51097 -2.6537,-4.307194 -4.69422,-5.844505 -1.03357,-0.69024 -2.16102,-1.094015 -3.39747,-0.873448 0,0 -0.44984,0.339971 -0.44984,0.339971 v 0 c 1.22593,-0.249576 2.34962,0.148479 3.38131,0.828188 2.03542,1.522646 3.90836,3.307646 4.67106,5.809303 0.14963,0.912995 0.2902,1.730539 -0.0739,2.61742 -0.0725,0.176736 -0.22575,0.313748 -0.2931,0.492532 -0.0118,0.03142 0.12552,0.02999 0.0931,0.03853 -0.16452,0.04324 -0.337,0.04659 -0.5055,0.06988 -0.20694,-0.05294 -0.42106,-0.08315 -0.6208,-0.158827 -1.26307,-0.478542 -2.47486,-1.410145 -3.20964,-2.544472 -0.20944,-0.323334 -0.35339,-0.684657 -0.53009,-1.026985 -0.0835,-0.374269 -0.20582,-0.74195 -0.25053,-1.122807 -0.18613,-1.585513 0.20648,-3.275611 0.98584,-4.654791 0,0 -0.52193,0.223713 -0.52193,0.223713 z" />
      <path
         style="opacity:1;fill:none;stroke:#000000;stroke-width:1.29;stroke-miterlimit:4;stroke-dasharray:none"
         id="path947"
         d="m 133.64723,47.131825 c -0.16676,2.554287 -0.19951,5.114282 -0.31398,7.67081 -0.22668,2.365854 -0.51195,4.742585 -1.0407,7.063092 0.24455,-0.214239 0.53995,-0.381598 0.73365,-0.642715 0.22417,-0.302186 0.33099,-0.675807 0.49547,-1.014201 0.20525,-0.422265 0.40708,-0.846191 0.61373,-1.267767 0.16493,-0.336455 1.02407,-2.077977 1.23549,-2.440136 0.17514,-0.30004 0.38794,-0.576455 0.58192,-0.864685 0.17971,-0.156688 0.31776,-0.381502 0.53913,-0.470066 0.075,-0.03 -0.007,0.171979 0.0375,0.23935 0.12079,0.182726 0.32668,0.300011 0.44208,0.486195 0.56125,0.905569 0.67185,2.053911 0.84272,3.075067 0.16249,1.489962 0.1488,2.989755 0.11714,4.485529 l 0.49624,-0.251666 v 0 c 0.0249,-1.498018 0.0357,-2.999875 -0.12718,-4.491823 -0.17255,-1.033164 -0.28562,-2.189555 -0.85004,-3.106958 -0.12348,-0.200691 -0.23501,-0.494387 -0.46796,-0.529838 -0.70703,-0.107604 -1.10761,0.395454 -1.53676,0.786042 -0.19173,0.289481 -0.40136,0.567865 -0.57518,0.868442 -0.20721,0.358336 -1.07085,2.110132 -1.23331,2.440639 -0.20764,0.422388 -0.41042,0.847156 -0.61828,1.269436 -0.16728,0.339831 -0.43919,0.644242 -0.50711,1.016868 -0.02,0.109905 0.12607,-0.705124 0.2233,-0.650112 0.44148,-2.336485 0.90431,-3.871895 1.08391,-6.245491 0.1138,-2.561007 0.14807,-5.12577 0.33339,-7.683423 l -0.5052,0.257411 z"
         sodipodi:nodetypes="cccsssscscccccscsscssscccccc" />
      <path
         style="opacity:1;fill:none;stroke:#000000;stroke-width:1.29;stroke-miterlimit:4;stroke-dasharray:none"
         id="path951"
         d="m 142.90393,56.247181 c -0.0258,-0.490209 0.17978,-0.928727 0.42384,-1.339067 0.22744,-0.412086 0.61782,-0.652346 0.97854,-0.928706 0.0392,-0.03001 -0.0842,0.05151 -0.1263,0.07726 0.47375,-0.269521 0.93107,-0.228582 1.44218,-0.104479 0.70761,0.153699 1.312,0.547884 1.91215,0.933678 0.61017,0.444235 1.27304,0.807553 1.84952,1.297059 0.53762,0.463021 0.91674,1.055944 1.20416,1.697487 0.26961,0.719569 0.31984,1.486384 0.28011,2.246212 -0.11509,0.85812 -0.63139,1.491631 -1.24065,2.06639 -0.53762,0.489964 -1.17019,0.741339 -1.86982,0.89861 -0.94941,0.175591 -1.9048,0.121902 -2.85295,-0.01714 -0.61333,-0.113022 -1.19682,-0.363879 -1.69433,-0.738986 -0.43034,-0.444371 -0.55465,-1.065327 -0.57125,-1.664118 -0.0322,-0.59 0.2633,-0.98968 0.67506,-1.372307 0.24876,-0.184949 0.5048,-0.384043 0.78608,-0.519295 0.0261,-0.01254 -0.0903,0.06666 -0.0619,0.06101 0.10458,-0.02082 0.19887,-0.0776 0.30091,-0.108567 0.10704,-0.03248 0.21702,-0.05435 0.32552,-0.08152 0.54932,-0.105577 1.11065,-0.166346 1.66946,-0.127709 0.59948,0.05784 1.18001,0.247861 1.72657,0.494768 0.58807,0.360749 1.08167,0.85118 1.58793,1.315246 0,0 0.33845,-0.209439 0.33845,-0.209439 v 0 c -0.50938,-0.466547 -1.00548,-0.959006 -1.59386,-1.326356 -0.54828,-0.250925 -1.13214,-0.443547 -1.73409,-0.506611 -0.56106,-0.04623 -1.1252,0.01762 -1.67788,0.11829 -0.75294,0.179663 -1.43184,0.562338 -2.03648,1.0419 -0.41159,0.394626 -0.69602,0.806424 -0.66063,1.402818 0.0218,0.610775 0.15152,1.240449 0.58842,1.695178 0.49942,0.382301 1.08949,0.636545 1.70755,0.754263 0.95081,0.140685 1.9082,0.198747 2.86156,0.02864 0.94832,-0.202507 1.81041,-0.663707 2.55235,-1.289479 0.60928,-0.584499 1.12195,-1.228503 1.22953,-2.094489 0.0374,-0.765506 -0.0171,-1.538462 -0.28898,-2.262775 -0.29025,-0.646443 -0.672,-1.245026 -1.21301,-1.712772 -0.57658,-0.492464 -1.242,-0.854779 -1.85288,-1.301221 -0.60239,-0.388289 -1.20856,-0.787887 -1.91866,-0.945049 -0.5139,-0.130485 -0.97666,-0.186047 -1.45911,0.07939 -0.58479,0.336402 -1.17065,0.669449 -1.52827,1.264986 -0.24301,0.418561 -0.44176,0.863711 -0.41747,1.359628 0,0 0.35863,-0.182732 0.35863,-0.182732 z" />
      <path
         style="opacity:1;fill:none;stroke:#000000;stroke-width:1.29;stroke-miterlimit:4;stroke-dasharray:none"
         id="path953"
         d="m 95.39466,27.629538 c -0.187127,4.180329 -0.277387,8.36218 -0.496695,12.541355 -0.433649,5.912819 -0.901536,11.823684 -1.378981,17.733251 -0.159616,2.332514 -0.480547,4.662212 -0.459053,7.003462 0.009,0.987521 0.100206,1.967087 0.316604,2.930443 0,0 0.496868,-0.267181 0.496868,-0.267181 v 0 c -0.216185,-0.958763 -0.30771,-1.933872 -0.316793,-2.916878 -0.01939,-2.335578 0.286803,-4.660651 0.439531,-6.988225 0.461105,-5.908374 0.921724,-11.816964 1.362975,-17.726758 0.226107,-4.187645 0.322011,-8.378703 0.539824,-12.566414 0,0 -0.50428,0.256945 -0.50428,0.256945 z" />
      <path
         style="opacity:1;fill:none;stroke:#000000;stroke-width:1.29;stroke-miterlimit:4;stroke-dasharray:none"
         id="path955"
         d="m 85.505088,27.194227 c 2.393696,-0.04394 4.785156,0.06524 7.176669,0.150526 2.332495,0.110474 4.669631,0.06084 6.99951,0.230976 1.691003,0.123481 1.789563,0.167595 3.438383,0.408602 1.79351,0.429043 3.92698,0.764987 5.50105,1.806207 0.18211,0.120462 0.34005,0.273992 0.51007,0.410988 0.11985,0.170309 0.27657,0.319926 0.35955,0.510934 0.40276,0.927044 0.0678,2.364925 -0.37835,3.214936 -0.18377,0.350152 -0.42252,0.66857 -0.63378,1.002858 -1.78951,2.396218 -4.14577,4.276278 -6.40704,6.203312 -1.57942,1.404597 -3.178831,2.796276 -4.989756,3.8969 -0.229415,-0.01492 -0.03039,-0.0095 -0.545025,0.185783 -0.76086,0.288705 -0.822863,0.286594 -1.498193,0.824738 0.04092,0.121745 0.06429,0.250878 0.122751,0.365236 0.328385,0.642323 0.963991,1.4898 1.322919,2.030637 1.280663,1.929707 2.507377,3.890656 3.711874,5.868427 0.44924,0.759356 0.91675,1.508199 1.34772,2.278067 1.77456,3.169957 3.36341,6.448621 4.95564,9.71178 2.177,4.461627 1.57187,3.214815 3.61178,7.535648 0.4776,1.018157 0.95521,2.036313 1.43282,3.054469 0,0 0.44631,-0.252735 0.44631,-0.252735 v 0 c -0.48075,-1.016413 -0.9615,-2.032823 -1.44224,-3.049236 -2.14147,-4.516839 -1.33921,-2.852565 -3.61542,-7.534311 -1.58831,-3.266864 -3.16312,-6.55483 -4.93402,-9.728859 -0.42998,-0.770665 -0.8979,-1.519547 -1.34684,-2.279322 -1.20134,-1.980541 -2.427996,-3.942143 -3.697883,-5.879695 -0.355621,-0.542597 -0.976058,-1.382837 -1.297188,-2.027066 -0.05078,-0.101864 -0.06649,-0.217709 -0.09974,-0.326564 -0.133752,0.04706 -0.261501,0.117274 -0.401262,0.141176 -0.08179,0.014 0.137848,-0.0835 0.522438,-0.230386 0.668422,-0.255291 1.332458,-0.45467 1.924926,-0.889431 1.802085,-1.108734 3.398359,-2.498072 4.975639,-3.900662 2.2626,-1.930252 4.62011,-3.81539 6.4039,-6.220092 0.21119,-0.337961 0.45056,-0.659866 0.63357,-1.013878 0.451,-0.872403 0.77057,-2.32196 0.35745,-3.266364 -0.0855,-0.195574 -0.24539,-0.349366 -0.36809,-0.524049 -0.17238,-0.139298 -0.33245,-0.2954 -0.51716,-0.417894 -1.57889,-1.047083 -3.7257,-1.380503 -5.52513,-1.813872 -1.67275,-0.24547 -1.72802,-0.283612 -3.44424,-0.410435 -2.328852,-0.172093 -4.664842,-0.126164 -6.996528,-0.234405 -2.385295,-0.08567 -4.770205,-0.19713 -7.15773,-0.166685 0,0 -0.459354,0.333741 -0.459354,0.333741 z" />
      <path
         style="opacity:1;fill:none;stroke:#000000;stroke-width:1.29;stroke-miterlimit:4;stroke-dasharray:none"
         id="path961"
         d="m 126.32638,53.244178 c -0.96411,0.512223 -1.69748,1.338675 -2.38268,2.170213 -0.72666,0.925851 -1.40727,1.890072 -1.89438,2.964532 -0.34427,0.830844 -0.32044,1.144193 0.0611,1.944407 0.30956,0.57214 0.87332,0.908907 1.41679,1.230341 0.49083,0.298122 1.04444,0.441833 1.60618,0.529402 0.50922,0.07622 1.02064,0.124368 1.53413,0.161611 0,0 0.32298,-0.231125 0.32298,-0.231125 v 0 c -0.5122,-0.03668 -1.02199,-0.08553 -1.52987,-0.160774 -0.55865,-0.08283 -1.11025,-0.220831 -1.59863,-0.51612 -0.53773,-0.315116 -1.0977,-0.646337 -1.40542,-1.209556 -0.37647,-0.791588 -0.38659,-1.094568 -0.0464,-1.913053 0.48867,-1.069944 1.16775,-2.031551 1.89437,-2.953147 0.4043,-0.486725 0.81249,-0.952172 1.2846,-1.375259 0.1131,-0.101352 0.23052,-0.197851 0.3488,-0.293098 0.0874,-0.07039 0.19933,-0.114991 0.26813,-0.203671 0.0452,-0.05826 -0.12894,0.07158 -0.19341,0.107363 0,0 0.31368,-0.252066 0.31368,-0.252066 z" />
    </g>
  </g>
</svg>
