<?xml version="1.0" encoding="UTF-8" standalone="no"?>
<svg
   xmlns:dc="http://purl.org/dc/elements/1.1/"
   xmlns:cc="http://creativecommons.org/ns#"
   xmlns:rdf="http://www.w3.org/1999/02/22-rdf-syntax-ns#"
   xmlns:svg="http://www.w3.org/2000/svg"
   xmlns="http://www.w3.org/2000/svg"
   height="80pt"
   viewBox="0 0 80 80"
   width="80pt"
   version="1.1"
   id="svg108">
  <metadata
     id="metadata114">
    <rdf:RDF>
      <cc:Work
         rdf:about="">
        <dc:format>image/svg+xml</dc:format>
        <dc:type
           rdf:resource="http://purl.org/dc/dcmitype/StillImage" />
        <dc:title></dc:title>
      </cc:Work>
    </rdf:RDF>
  </metadata>
  <defs
     id="defs112" />
  <path
     d="m 34.740171,11.070934 c 0,2.904721 2.355109,5.259831 5.259831,5.259831 2.90472,0 5.25983,-2.35511 5.25983,-5.259831 0,-2.90472 -5.25983,-10.51966054 -5.25983,-10.51966054 0,0 -5.259831,7.61494054 -5.259831,10.51966054 z m 0,0"
     fill="#ff6243"
     id="path86"
     style="stroke-width:0.16437" />
  <path
     d="m 57.09445,13.700849 c 0,2.904721 2.35511,5.259831 5.259831,5.259831 2.904721,0 5.259834,-2.35511 5.259834,-5.259831 0,-2.904721 -5.259834,-10.5196602 -5.259834,-10.5196602 0,0 -5.259831,7.6149392 -5.259831,10.5196602 z m 0,0"
     fill="#ff6243"
     id="path90"
     style="stroke-width:0.16437" />
  <path
     d="m 22.905552,13.700849 c -0.0019,2.645967 -1.965373,4.879726 -4.58951,5.220665 h -0.01284 c -0.218304,0.02633 -0.437891,0.03981 -0.657478,0.03917 -2.904722,0 -5.259831,-2.35511 -5.259831,-5.259831 0,-2.906005 5.259831,-10.5196603 5.259831,-10.5196603 0,0 0.263248,0.3813889 0.657478,0.9862182 1.420257,2.1567102 4.602352,7.2714321 4.602352,9.5334421 z m 0,0"
     fill="#ff6243"
     id="path94"
     style="stroke-width:0.16437" />
  <path
     d="M 66.903984,60.434494 C 65.67442,59.197227 64.984197,57.523995 64.984197,55.779493 v -5.037675 c 0.01605,-1.774679 -1.091519,-3.365727 -2.76154,-3.967345 -0.07641,-0.02376 -0.149603,-0.05137 -0.227293,-0.07063 -0.140613,-0.03274 -0.283153,-0.05843 -0.426334,-0.07641 -0.123278,-0.01605 -0.247196,-0.03146 -0.373042,-0.0366 -0.165654,-0.0045 -0.331308,0.0013 -0.495677,0.01797 -0.117499,0.01092 -0.235639,0.01605 -0.348644,0.03596 -0.161801,0.03403 -0.321035,0.07769 -0.477699,0.130982 -0.100805,0.03339 -0.206104,0.0565 -0.303699,0.09631 -0.163728,0.06999 -0.322961,0.150886 -0.475773,0.243344 -0.07641,0.04302 -0.157949,0.07769 -0.229862,0.131624 -0.220229,0.144465 -0.425049,0.311403 -0.611891,0.496961 -0.738379,0.73517 -1.155082,1.733587 -1.158293,2.775665 v 2.629916 c 0,3.6309 -2.943887,6.574787 -6.574788,6.574787 -3.630901,0 -6.574788,-2.943887 -6.574788,-6.574787 v -2.407756 c 0.01605,-1.774679 -1.091517,-3.365727 -2.761539,-3.967345 -0.07641,-0.02376 -0.149602,-0.05137 -0.227293,-0.07063 -0.140613,-0.03274 -0.283152,-0.05843 -0.426334,-0.07641 -0.123277,-0.01605 -0.247196,-0.03146 -0.373042,-0.0366 -0.165654,-0.0045 -0.331308,0.0013 -0.495677,0.01797 -0.117498,0.01092 -0.23564,0.01605 -0.348643,0.03596 -0.161802,0.03403 -0.321035,0.07769 -0.4777,0.130982 -0.100805,0.03339 -0.206104,0.0565 -0.303699,0.09631 -0.163728,0.06999 -0.322961,0.150886 -0.475773,0.243344 -0.07641,0.04302 -0.15795,0.07769 -0.229861,0.131624 -0.220229,0.144465 -0.425049,0.311403 -0.611892,0.496961 -0.73838,0.73517 -1.155082,1.733587 -1.158293,2.775665 v 7.889746 c 0,3.630901 -2.943886,6.574789 -6.574787,6.574789 -3.630902,0 -6.574789,-2.943888 -6.574789,-6.574789 V 50.7418 c 0.01605,-1.774679 -1.091517,-3.365727 -2.761539,-3.967345 -0.07641,-0.02376 -0.149602,-0.05137 -0.227293,-0.07063 -0.140612,-0.03274 -0.283152,-0.05843 -0.426333,-0.07641 -0.123278,-0.01605 -0.247197,-0.03146 -0.373043,-0.0366 -0.165653,-0.0045 -0.331307,0.0013 -0.495677,0.01797 -0.117499,0.01092 -0.23564,0.01605 -0.348643,0.03596 -0.161802,0.03403 -0.321035,0.07769 -0.4777,0.130982 -0.100805,0.03339 -0.206104,0.0565 -0.303698,0.09631 -0.163728,0.06999 -0.322961,0.150886 -0.475774,0.243344 -0.07641,0.04302 -0.157949,0.07769 -0.22986,0.131624 -0.22023,0.144465 -0.42505,0.311403 -0.611893,0.496961 -0.738379,0.73517 -1.155082,1.733587 -1.158292,2.775665 v 5.259831 c 0.0052,1.745144 -0.68573,3.420944 -1.919787,4.655001 C 11.861963,61.66852 10.186163,62.359387 8.4410186,62.35425 7.5369857,62.353635 6.6425827,62.170003 5.8111035,61.814939 V 78.13377 H 74.188898 V 61.814943 c -0.831479,0.355063 -1.725882,0.538696 -2.629909,0.539338 -1.744506,0 -3.417735,-0.690224 -4.655005,-1.919787 z m 0,0"
     fill="#ffcd00"
     id="path32"
     style="stroke-width:0.16437" />
  <path
     d="M 72.873947,38.685044 H 7.1260608 c -2.9047205,0 -5.2598302,2.355109 -5.2598302,5.25983 v 11.834619 c 0,1.744502 0.6902244,3.417734 1.9197869,4.655001 1.2321305,1.237268 2.9092154,1.928776 4.6550011,1.919787 1.7451444,0.0052 3.4209444,-0.68573 4.6550014,-1.919787 1.234057,-1.234057 1.924924,-2.909857 1.919787,-4.655001 v -5.259831 c 0,-1.04593 0.41606,-2.049485 1.157008,-2.787864 0.186842,-0.185558 0.391663,-0.351854 0.611892,-0.496961 0.07191,-0.04751 0.153455,-0.08154 0.229861,-0.131625 0.152813,-0.09182 0.312045,-0.173359 0.475773,-0.243343 0.0976,-0.04045 0.202894,-0.06292 0.303699,-0.09567 0.156665,-0.05329 0.315898,-0.09759 0.477699,-0.131624 0.114288,-0.0199 0.231145,-0.02504 0.348644,-0.03531 0.116856,-0.01091 0.22344,-0.02247 0.340297,-0.02247 0.05265,0 0.102731,0.01284 0.15538,0.01605 0.05265,0.0026 0.08796,-0.0096 0.130982,0 0.08283,0 0.15795,0.03146 0.239492,0.04173 0.143182,0.01797 0.285721,0.04366 0.426334,0.07641 0.07769,0.02119 0.15217,0.04622 0.227293,0.07063 1.641128,0.507235 2.761539,2.022518 2.765391,3.740053 v 7.889746 c 0,3.630901 2.943887,6.574789 6.574789,6.574789 3.630901,0 6.574787,-2.943888 6.574787,-6.574789 v -7.889746 c 0,-1.04593 0.416061,-2.049485 1.157009,-2.787864 0.186843,-0.185558 0.391662,-0.351854 0.611892,-0.496961 0.07191,-0.04751 0.153455,-0.08154 0.22986,-0.131625 0.152814,-0.09182 0.312046,-0.173359 0.475774,-0.243343 0.09759,-0.04045 0.202894,-0.06292 0.303699,-0.09567 0.156665,-0.05329 0.315898,-0.09759 0.4777,-0.131624 0.114287,-0.0199 0.231144,-0.02504 0.348643,-0.03531 0.116856,-0.01091 0.22344,-0.02247 0.340297,-0.02247 0.05265,0 0.10273,0.01284 0.15538,0.01605 0.05265,0.0026 0.08796,-0.0096 0.130982,0 0.08283,0 0.157949,0.03146 0.239492,0.04173 0.143181,0.01797 0.285721,0.04366 0.426334,0.07641 0.07769,0.02119 0.15217,0.04622 0.227293,0.07063 1.641128,0.507235 2.761538,2.022518 2.765391,3.740053 v 2.629916 c 0,3.6309 2.943887,6.574787 6.574788,6.574787 3.630901,0 6.574788,-2.943887 6.574788,-6.574787 v -2.629916 c 0,-1.04593 0.416062,-2.049485 1.15701,-2.787864 0.186841,-0.185558 0.391661,-0.351854 0.611891,-0.496961 0.07191,-0.04751 0.153454,-0.08154 0.229861,-0.131625 0.152812,-0.09182 0.312045,-0.173359 0.475772,-0.243343 0.0976,-0.04045 0.202895,-0.06292 0.3037,-0.09567 0.156664,-0.05329 0.315898,-0.09759 0.477699,-0.131624 0.114289,-0.0199 0.231145,-0.02504 0.348644,-0.03531 0.116857,-0.01091 0.22344,-0.02247 0.340296,-0.02247 0.05265,0 0.102731,0.01284 0.155381,0.01605 0.05265,0.0026 0.08796,-0.0096 0.130983,0 0.08283,0 0.157948,0.03146 0.239491,0.04173 0.143181,0.01797 0.285721,0.04366 0.426334,0.07641 0.07769,0.02119 0.152171,0.04622 0.227292,0.07063 1.641129,0.507235 2.76154,2.022518 2.765393,3.740053 v 5.259831 c -0.0052,1.745144 0.685729,3.420944 1.919787,4.655001 1.234058,1.234057 2.909856,1.924924 4.655005,1.919787 0.904027,-6.42e-4 1.79843,-0.184275 2.629909,-0.539338 2.392355,-1.05492 3.939098,-3.420303 3.944873,-6.03545 V 43.944874 c 0,-2.904721 -2.355107,-5.25983 -5.259824,-5.25983 z m 0,0"
     fill="#ff3051"
     id="path34"
     style="stroke:#ff5555;stroke-width:0.16437" />
  <path
     d="m 13.09602,60.434494 c 1.229562,-1.237267 1.919787,-2.910499 1.919787,-4.655001 v 2.629915 c 0.0052,1.745144 -0.68573,3.420944 -1.919787,4.655001 -1.234057,1.234057 -2.909857,1.924924 -4.6550014,1.919788 C 6.6952329,64.993197 5.018148,64.301676 3.7860175,63.064409 2.556455,61.827142 1.8662306,60.15391 1.8662306,58.409408 v -2.629915 c 0,1.744502 0.6902244,3.417734 1.9197869,4.655001 1.2321305,1.237268 2.9092154,1.928776 4.6550011,1.919787 1.7445014,0 3.4177334,-0.690224 4.6550014,-1.919787 z m 0,0"
     fill="#e52b49"
     id="path36"
     style="stroke-width:0.16437" />
  <path
     d="m 34.135342,63.064409 c 1.229562,-1.237267 1.919786,-2.910499 1.919786,-4.655001 v 2.629915 c 0,3.630901 -2.943886,6.574791 -6.574787,6.574791 -3.630902,0 -6.574789,-2.94389 -6.574789,-6.574791 v -2.629915 c 0.0032,2.65945 1.605816,5.055652 4.06173,6.073974 2.456556,1.01768 5.284871,0.458437 7.16806,-1.418973 z m 0,0"
     fill="#e52b49"
     id="path38"
     style="stroke-width:0.16437" />
  <path
     d="m 55.174663,57.804578 c 1.229563,-1.237266 1.919787,-2.910498 1.919787,-4.655 v 2.629915 c 0,3.630901 -2.943887,6.574788 -6.574788,6.574788 -3.630901,0 -6.574788,-2.943887 -6.574788,-6.574788 v -2.629915 c 0.0032,2.65945 1.605815,5.055652 4.061729,6.073974 2.456557,1.017679 5.284871,0.458437 7.16806,-1.418974 z m 0,0"
     fill="#e52b49"
     id="path40"
     style="stroke-width:0.16437" />
  <path
     d="m 78.133771,55.779493 v 2.629915 c -0.0053,2.615147 -1.552518,4.98053 -3.944873,6.03545 -0.831479,0.355064 -1.725882,0.538696 -2.629909,0.539339 -1.745149,0.0052 -3.420947,-0.685731 -4.655005,-1.919788 -1.234058,-1.234057 -1.924924,-2.909857 -1.919787,-4.655001 v -2.629915 c -0.0052,1.745144 0.685729,3.420944 1.919787,4.655001 1.234058,1.234057 2.909856,1.924924 4.655005,1.919787 0.904027,-6.42e-4 1.79843,-0.184275 2.629909,-0.539338 2.392355,-1.05492 3.939098,-3.420303 3.944873,-6.03545 z m 0,0"
     fill="#e52b49"
     id="path42"
     style="stroke-width:0.16437" />
  <path
     d="M 78.133771,79.448728 H 1.8662306 c -0.7261802,0 -1.31495751,-0.588779 -1.31495751,-1.314958 0,-0.726179 0.58877731,-1.314951 1.31495751,-1.314951 H 78.133771 c 0.72618,0 1.314958,0.588772 1.314958,1.314951 0,0.726179 -0.588778,1.314958 -1.314958,1.314958 z m 0,0"
     fill="#bcbec0"
     id="path44"
     style="stroke-width:0.16437" />
  <path
     d="m 36.055128,21.590594 h 7.889746 v 17.09445 h -7.889746 z m 0,0"
     fill="#ff9811"
     id="path84"
     style="stroke-width:0.16437" />
  <path
     d="m 58.409408,24.22051 h 7.889748 v 14.464534 h -7.889748 z m 0,0"
     fill="#ff9811"
     id="path88"
     style="stroke-width:0.16437" />
  <path
     d="m 13.700849,24.22051 h 7.889745 v 14.464534 h -7.889745 z m 0,0"
     fill="#ff9811"
     id="path92"
     style="stroke-width:0.16437" />
  <path
     d="m 13.700849,24.22051 h 7.889745 v 2.629916 h -7.889745 z m 0,0"
     fill="#e5890f"
     id="path102"
     style="stroke-width:0.16437" />
  <path
     d="m 36.055128,21.590594 h 7.889746 v 2.629916 h -7.889746 z m 0,0"
     fill="#e5890f"
     id="path104"
     style="stroke-width:0.16437" />
  <path
     d="m 58.409408,24.22051 h 7.889748 v 2.629916 h -7.889748 z m 0,0"
     fill="#e5890f"
     id="path106"
     style="stroke-width:0.16437" />
</svg>
